<svg width="2000" height="2000" viewBox="0 0 2000 2000" fill="none" xmlns="http://www.w3.org/2000/svg">
<g clip-path="url(#clip0_4_47)">
<path d="M2000 0H0V2000H2000V0Z" fill="white"/>
<path d="M1062.48 1682.65H1023.29V1776.03H1062.48C1065 1776.03 1067.04 1773.99 1067.04 1771.47V1687.21C1067.04 1684.69 1065 1682.65 1062.48 1682.65ZM1048.76 1750.6C1045.41 1750.6 1042.69 1741.08 1042.69 1729.34C1042.69 1717.6 1045.41 1708.07 1048.76 1708.07C1052.11 1708.07 1054.82 1717.6 1054.82 1729.34C1054.82 1741.08 1052.11 1750.6 1048.76 1750.6Z" fill="#3A3A3A"/>
<path d="M1037.56 193.563L1012.58 183.551V174H1037.56V193.563Z" fill="#3A3A3A"/>
<path d="M1037.5 186.304L1032.5 186.37L1052.3 1691.51L1057.31 1691.44L1037.5 186.304Z" fill="#3A3A3A"/>
<path d="M1051.51 1671.79H1057.86C1058.67 1671.79 1059.34 1672.46 1059.34 1673.28V1688.12H1050.03V1673.28C1050.03 1672.46 1050.7 1671.79 1051.51 1671.79Z" fill="#3A3A3A"/>
<path d="M1021.77 174H1010.01L1000 1821.9C1000 1824.69 1007.11 1826.96 1015.89 1826.96C1024.67 1826.96 1031.78 1824.69 1031.78 1821.9L1021.77 174Z" fill="#3A3A3A"/>
</g>
<defs>
<clipPath id="clip0_4_47">
<rect width="2000" height="2000" fill="white"/>
</clipPath>
</defs>
</svg>
