<svg width="2000" height="2000" viewBox="0 0 2000 2000" fill="none" xmlns="http://www.w3.org/2000/svg">
<g clip-path="url(#clip0_1_33)">
<path d="M2003 4H3V2004H2003V4Z" fill="white"/>
<g clip-path="url(#clip1_1_33)">
<path d="M30 127H1976V2004H30V127Z" fill="white"/>
<path d="M983.427 411.524L1028.81 411.535L1052.63 1126.07L1066.57 1126.01C1061.61 1002.33 1057.49 878.628 1054.23 754.898C1069.27 777.608 1101.11 800.356 1125.42 816.174C1217.88 876.359 1288.18 980.43 1242.65 1093.1C1236.88 1106.45 1230.73 1106.25 1219.16 1110.47C1150.39 1135.56 1174.26 1227.38 1189.92 1279.83C1195.59 1298.79 1209.92 1325.33 1228.36 1334.1C1241.74 1340.44 1263.54 1339.28 1277.53 1345.99C1287.49 1350.78 1292.68 1367.18 1295.28 1377.07C1320.86 1474.31 1329.85 1595.27 1280.61 1686.6C1243.07 1749.28 1194.22 1786.13 1123 1804.17C1028.61 1828.07 898.383 1823.78 813.502 1772.35C755.215 1733.29 727.806 1694.95 707.629 1622.97C688.063 1553.16 696.605 1423.98 726.153 1354.16C735.057 1333.13 788.115 1350.59 808.329 1310.76C832.768 1262.62 843.787 1214.98 837.899 1161.55C835.328 1142.52 816.522 1119.4 798.162 1112.53C765.905 1106.31 762.654 1077.56 757.95 1048.84C742.966 957.348 804.443 872.906 876.455 823.745C920.987 793.343 941.713 779.119 973.393 735.981L983.427 411.524Z" fill="#3B3B3B"/>
<path d="M991.679 227.006C991.678 220.344 993.887 217 998.336 217H1012.23C1016.3 217 1018.34 221.267 1018.34 229.772C1018.34 232.012 1021.31 233.116 1027.24 233.116C1028.34 236.445 1029.27 239.971 1030.01 243.663H1035.02C1038.71 243.663 1040.57 245.146 1040.57 248.112V249.232C1040.57 254.422 1037.23 258.871 1030.57 262.563C1025.76 268.495 1023.35 273.125 1023.35 276.455V282.008L1023.89 286.457H1046.12C1048.33 284.233 1050.94 283.113 1053.9 283.113H1060.02C1066.67 283.113 1071.5 285.534 1074.47 290.345V293.115C1071.5 297.942 1066.67 300.348 1060.02 300.348H1054.46C1051.5 300.348 1048.71 299.062 1046.12 296.459H1023.9L1025.58 325.347H1045.57V318.129C1045.57 313.316 1048.53 310.896 1054.46 310.896H1059.46C1064.27 310.896 1068.54 314.603 1072.24 322.018C1072.97 323.864 1073.35 325.726 1073.35 327.571V328.676C1071.5 340.539 1066.49 346.456 1058.35 346.456H1055.02C1048.71 346.456 1045.57 342.764 1045.57 335.349H1025.58C1026.36 358.429 1027.08 379.861 1027.76 399.645L982.378 399.558L983.902 354.236H958.888C958.525 354.236 957.784 356.838 956.664 362.029C954.439 364.254 951.852 365.358 948.886 365.358H944.453C936.675 365.358 931.847 359.442 930.002 347.578C932.211 335.729 937.583 329.798 946.118 329.798H947.222C954.637 329.798 958.344 333.143 958.344 339.8V344.249H984.447C984.81 334.247 985.007 326.832 985.007 322.02V320.9L985.566 314.787H957.783C957.783 318.509 954.999 320.537 949.445 320.9H944.451C934.812 319.417 930 314.787 930 307.009C932.588 298.868 937.218 294.798 943.892 294.798H950.565C955.74 294.798 958.343 297.204 958.343 302.016V304.8H985.565L986.67 274.233C983.341 266.092 978.529 260.523 972.233 257.557C970.372 252.745 969.449 249.598 969.449 248.114C969.449 245.527 971.114 244.044 974.443 243.666H980.557C980.557 236.266 982.403 232.559 986.126 232.559C989.818 232.559 991.679 230.712 991.679 227.006Z" fill="#3B3B3B"/>
</g>
</g>
<defs>
<clipPath id="clip0_1_33">
<rect width="2000" height="2000" fill="white"/>
</clipPath>
<clipPath id="clip1_1_33">
<rect width="1946" height="1877" fill="white" transform="translate(30 127)"/>
</clipPath>
</defs>
</svg>
