<svg width="2000" height="2000" viewBox="0 0 2000 2000" fill="none" xmlns="http://www.w3.org/2000/svg">
<g clip-path="url(#clip0_1_11)">
<path d="M2000 0H0V2000H2000V0Z" fill="white"/>
<path d="M1023 672.356C1026.93 788.137 1029.37 858.24 1030.32 882.666L1036.84 1115.88L1045.83 1115.63L1039.51 889.099C1079.2 891.473 1109.86 909.937 1131.46 944.497C1141.51 962.672 1146.55 980.265 1146.55 997.271V1004.8C1146.55 1019.49 1141.32 1039.4 1130.9 1064.53C1130.9 1065.7 1130.69 1068.21 1130.31 1072.06C1130.31 1077.87 1133.2 1084.82 1139.01 1092.94L1139.58 1096.99C1138.41 1100.09 1136.11 1101.64 1132.63 1101.64C1126.82 1100.09 1122.96 1099.32 1121.03 1099.32C1114.08 1099.32 1107.89 1105.7 1102.47 1118.45C1099.38 1125.8 1097.85 1134.69 1097.85 1145.13V1148.6C1097.85 1186.1 1104.79 1211.42 1118.72 1224.56C1124.12 1228.05 1129.73 1229.97 1135.52 1230.35C1137.85 1230.35 1142.49 1228.43 1149.45 1224.56H1150.61C1154.85 1224.56 1158.53 1229.2 1161.63 1238.48V1239.64C1161.63 1241.58 1159.69 1245.05 1155.83 1250.08C1155.04 1255.1 1154.66 1258.59 1154.66 1260.51C1154.66 1265.93 1159.5 1279.84 1169.16 1302.27C1174.18 1318.5 1176.69 1331.45 1176.69 1341.11V1366.61C1176.69 1389.04 1167.41 1413.2 1148.87 1439.1C1138.04 1453.8 1120.07 1465.2 1094.94 1473.32C1068.27 1481.05 1045.07 1484.91 1025.37 1484.91H975.497C946.883 1484.91 915.774 1477.96 882.139 1464.03C859.715 1451.67 842.913 1430.98 831.701 1401.99C825.89 1385 823 1368.95 823 1353.87C823 1329.52 829.948 1302.64 843.876 1273.27C845.424 1268.25 846.387 1263.8 846.766 1259.93C846.766 1253.75 844.255 1247.37 839.233 1240.79L838.649 1238.48C842.897 1229.2 846.955 1224.56 850.84 1224.56L864.168 1230.35H866.489C876.154 1230.35 884.46 1224.37 891.424 1212.38C899.146 1195.77 903.014 1173.93 903.014 1146.86V1146.28C903.014 1123.87 897.013 1108.6 885.043 1100.47C881.948 1099.71 879.816 1099.32 878.663 1099.32L868.226 1101.64C863.962 1100.86 861.846 1098.73 861.846 1095.26C861.846 1094.5 864.167 1089.67 868.81 1080.76L871.131 1072.06C871.131 1068.59 866.488 1053.9 857.203 1028C854.882 1016.02 853.729 1006.94 853.729 1000.75C853.729 969.448 866.488 941.419 892.007 916.674C905.903 903.915 924.647 895.419 948.239 891.155L970.284 888.25L970.853 883.623L977.958 672.356H1023ZM1007.96 516C1012.21 516 1014.34 520.453 1014.34 529.328C1014.34 531.666 1017.43 532.818 1023.62 532.818C1024.78 536.292 1025.74 539.971 1026.51 543.824H1031.74C1035.59 543.824 1037.54 545.373 1037.54 548.468V549.636C1037.54 555.052 1034.05 559.695 1027.1 563.548C1022.08 569.738 1019.57 574.57 1019.57 578.045V583.84L1020.13 588.482H1043.33C1045.64 586.161 1048.35 584.992 1051.45 584.992H1057.83C1064.78 584.992 1069.81 587.519 1072.91 592.54V595.43C1069.81 600.467 1064.78 602.978 1057.83 602.979H1052.03C1048.94 602.978 1046.03 601.636 1043.33 598.92H1020.14L1021.89 629.066H1042.75V621.533C1042.75 616.512 1045.84 613.985 1052.03 613.985H1057.25C1062.27 613.986 1066.72 617.855 1070.59 625.592C1071.35 627.518 1071.74 629.462 1071.74 631.388V632.54C1069.82 644.92 1064.59 651.095 1056.09 651.095H1052.62C1046.03 651.095 1042.75 647.241 1042.75 639.504H1021.89C1022.17 647.652 1022.44 655.602 1022.7 663.356H978.261L978.4 659.214H952.297C951.918 659.216 951.144 661.931 949.976 667.347C947.654 669.668 944.954 670.82 941.859 670.82H937.232C929.116 670.82 924.078 664.646 922.152 652.266C924.458 639.901 930.065 633.711 938.971 633.711H940.123C947.86 633.711 951.729 637.202 951.729 644.149V648.792H978.969C979.348 638.354 979.553 630.616 979.553 625.595V624.426L980.137 618.046H951.144C951.144 621.93 948.238 624.047 942.442 624.426H937.231C927.173 622.878 922.151 618.046 922.15 609.93C924.851 601.434 929.683 597.187 936.647 597.187H943.611C949.012 597.187 951.727 599.697 951.728 604.719V607.624H980.136L981.289 575.726C977.815 567.23 972.793 561.419 966.224 558.324C964.281 553.302 963.318 550.018 963.318 548.47C963.318 545.769 965.056 544.222 968.529 543.827H974.909C974.909 536.105 976.836 532.237 980.721 532.236C984.574 532.236 986.517 530.31 986.517 526.441C986.516 519.49 988.82 516 993.463 516H1007.96Z" fill="#3B3B3B"/>
</g>
<defs>
<clipPath id="clip0_1_11">
<rect width="2000" height="2000" fill="white"/>
</clipPath>
</defs>
</svg>
