<svg width="2000" height="2000" viewBox="0 0 2000 2000" fill="none" xmlns="http://www.w3.org/2000/svg">
<g clip-path="url(#clip0_1_25)">
<path d="M2000 0H0V2000H2000V0Z" fill="white"/>
<path d="M1035.89 429.133C1041.89 606.221 1045.62 713.441 1047.08 750.791L1057.05 1107.47L1069.04 1107.13L1059.36 760.519C1120.93 763.703 1168.41 791.98 1201.77 845.349C1217.13 873.146 1224.83 900.052 1224.83 926.062V937.582C1224.83 960.043 1216.84 990.498 1200.9 1028.92C1200.9 1030.71 1200.59 1034.55 1200.01 1040.44C1200.01 1049.33 1204.43 1059.96 1213.32 1072.37L1214.19 1078.58C1212.4 1083.31 1208.87 1085.68 1203.56 1085.68C1194.67 1083.31 1188.75 1082.13 1185.81 1082.13C1175.18 1082.13 1165.71 1091.89 1157.43 1111.4C1152.7 1122.63 1150.35 1136.23 1150.35 1152.19V1157.51C1150.35 1214.87 1160.98 1253.58 1182.28 1273.67C1190.54 1279.01 1199.12 1281.96 1207.98 1282.54C1211.53 1282.54 1218.63 1279.59 1229.28 1273.67H1231.04C1237.54 1273.68 1243.17 1280.78 1247.9 1294.98V1296.74C1247.9 1299.71 1244.93 1305.02 1239.04 1312.7C1237.83 1320.38 1237.25 1325.72 1237.25 1328.67C1237.25 1336.95 1244.64 1358.23 1259.42 1392.52C1267.1 1417.35 1270.94 1437.16 1270.94 1451.94V1490.94C1270.94 1525.23 1256.74 1562.19 1228.39 1601.79C1211.82 1624.28 1184.33 1641.72 1145.91 1654.13C1105.12 1665.96 1069.64 1671.86 1039.5 1671.86H963.23C919.468 1671.86 871.89 1661.23 820.448 1639.93C786.153 1621.02 760.456 1589.38 743.308 1545.04C734.42 1519.05 730 1494.51 730 1471.45C730 1434.21 740.626 1393.1 761.928 1348.18C764.295 1340.5 765.768 1333.69 766.348 1327.77C766.348 1318.33 762.507 1308.57 754.827 1298.5L753.934 1294.97C760.43 1280.77 766.637 1273.67 772.578 1273.67L792.962 1282.54H796.513C811.293 1282.54 823.997 1273.38 834.647 1255.05C846.458 1229.64 852.374 1196.24 852.374 1154.85V1153.96C852.374 1119.68 843.196 1096.33 824.89 1083.89C820.157 1082.73 816.896 1082.13 815.132 1082.13L799.168 1085.68C792.647 1084.5 789.411 1081.24 789.411 1075.92C789.412 1074.76 792.961 1067.37 800.062 1053.75L803.611 1040.44C803.611 1035.13 796.511 1012.67 782.311 973.062C778.76 954.73 776.997 940.844 776.997 931.376C776.997 883.508 796.511 840.64 835.539 802.795C856.793 783.281 885.461 770.287 921.543 763.767L955.258 759.323L956.128 752.247L966.995 429.133H1035.89ZM1012.88 190C1019.38 190 1022.64 196.811 1022.64 210.384C1022.64 213.959 1027.37 215.722 1036.84 215.722C1038.6 221.035 1040.07 226.663 1041.26 232.556H1049.25C1055.14 232.556 1058.12 234.923 1058.12 239.656V241.443C1058.12 249.727 1052.78 256.828 1042.15 262.721C1034.47 272.188 1030.63 279.577 1030.63 284.892V293.755L1031.5 300.855H1066.98C1070.5 297.305 1074.66 295.518 1079.39 295.518H1089.15C1099.78 295.518 1107.48 299.383 1112.21 307.062V311.481C1107.48 319.185 1099.78 323.025 1089.15 323.025H1080.29C1075.55 323.025 1071.11 320.973 1066.98 316.819H1031.5L1034.18 362.925H1066.09V351.404C1066.09 343.724 1070.82 339.86 1080.29 339.86H1088.26C1095.94 339.86 1102.75 345.778 1108.67 357.611C1109.83 360.557 1110.43 363.529 1110.43 366.475V368.237C1107.48 387.172 1099.49 396.615 1086.5 396.615H1081.18C1071.11 396.615 1066.09 390.722 1066.09 378.889H1034.18C1034.7 394.084 1035.2 408.832 1035.68 423.133H967.196L967.671 409.032H927.749C927.169 409.032 925.986 413.186 924.198 421.471C920.648 425.021 916.518 426.784 911.785 426.784H904.709C892.295 426.784 884.59 417.34 881.645 398.406C885.17 379.495 893.745 370.029 907.366 370.029H909.129C920.963 370.029 926.881 375.367 926.881 385.993V393.094H968.541C969.121 377.13 969.435 365.294 969.435 357.615V355.828L970.327 346.07H925.984C925.984 352.011 921.541 355.248 912.677 355.828H904.706C889.322 353.461 881.643 346.07 881.643 333.656C885.773 320.663 893.163 314.167 903.813 314.167H914.464C922.724 314.167 926.878 318.007 926.878 325.688V330.131H970.326L972.089 281.345C966.776 268.352 959.095 259.464 949.048 254.73C946.078 247.051 944.605 242.028 944.604 239.66C944.604 235.53 947.261 233.164 952.574 232.56H962.332C962.332 220.749 965.278 214.833 971.221 214.833C977.113 214.833 980.084 211.886 980.084 205.97C980.083 195.339 983.608 190 990.708 190H1012.88Z" fill="#3B3B3B"/>
<path d="M999.816 1898.12L1012.76 1682.65H986.869L999.816 1898.12Z" fill="#3B3B3B"/>
</g>
<defs>
<clipPath id="clip0_1_25">
<rect width="2000" height="2000" fill="white"/>
</clipPath>
</defs>
</svg>
