<svg width="2000" height="2000" viewBox="0 0 2000 2000" fill="none" xmlns="http://www.w3.org/2000/svg">
<g clip-path="url(#clip0_1_5)">
<path d="M2000 0H0V2000H2000V0Z" fill="white"/>
<path d="M1027.3 613.95C1031.92 750.23 1034.79 832.719 1035.91 861.418L1043.58 1135.75L1052.57 1135.5L1045.12 868.854C1092.6 871.244 1129.2 892.999 1154.9 934.119C1166.72 955.502 1172.65 976.199 1172.65 996.207V1005.07C1172.65 1022.35 1166.5 1045.77 1154.23 1075.33C1154.23 1076.71 1153.99 1079.66 1153.55 1084.19C1153.55 1091.03 1156.95 1099.2 1163.79 1108.75L1164.45 1113.53C1163.08 1117.17 1160.37 1118.99 1156.28 1118.99C1149.44 1117.17 1144.89 1116.26 1142.62 1116.26C1134.45 1116.26 1127.17 1123.77 1120.8 1138.78C1117.15 1147.42 1115.35 1157.88 1115.35 1170.16V1174.24C1115.35 1218.37 1123.53 1248.15 1139.91 1263.6C1146.27 1267.71 1152.86 1269.98 1159.68 1270.42C1162.41 1270.42 1167.87 1268.16 1176.07 1263.6H1177.42C1182.42 1263.6 1186.75 1269.07 1190.39 1279.99V1281.35C1190.39 1283.63 1188.1 1287.72 1183.57 1293.63C1182.64 1299.53 1182.2 1303.64 1182.2 1305.91C1182.2 1312.28 1187.88 1328.65 1199.25 1355.03C1205.16 1374.13 1208.11 1389.36 1208.11 1400.73V1430.73C1208.11 1457.11 1197.19 1485.54 1175.38 1516.01C1162.63 1533.3 1141.49 1546.72 1111.93 1556.27C1080.56 1565.37 1053.26 1569.9 1030.08 1569.9H971.41C937.746 1569.9 901.147 1561.73 861.576 1545.34C835.195 1530.79 815.427 1506.46 802.236 1472.35C795.399 1452.36 792 1433.48 792 1415.74C792 1387.09 800.174 1355.47 816.56 1320.92C818.38 1315.01 819.514 1309.77 819.96 1305.22C819.96 1297.96 817.006 1290.45 811.098 1282.7L810.411 1279.99C815.408 1269.07 820.183 1263.6 824.753 1263.6L840.433 1270.42H843.164C854.534 1270.42 864.306 1263.38 872.499 1249.28C881.584 1229.74 886.135 1204.04 886.135 1172.2V1171.51C886.135 1145.15 879.075 1127.18 864.993 1117.62C861.352 1116.72 858.843 1116.26 857.486 1116.26L845.207 1118.99C840.191 1118.08 837.701 1115.57 837.701 1111.49C837.701 1110.59 840.432 1104.91 845.894 1094.43L848.625 1084.19C848.625 1080.11 843.162 1062.83 832.238 1032.36C829.507 1018.26 828.151 1007.58 828.151 1000.29C828.151 963.473 843.163 930.497 873.185 901.385C889.534 886.374 911.586 876.379 939.342 871.363L965.276 867.945L965.945 862.502L974.306 613.95H1027.3ZM1009.6 430C1014.6 430 1017.11 435.24 1017.11 445.681C1017.11 448.43 1020.75 449.786 1028.03 449.786C1029.39 453.873 1030.52 458.202 1031.43 462.735H1037.58C1042.11 462.735 1044.4 464.556 1044.4 468.197V469.572C1044.4 475.944 1040.29 481.406 1032.12 485.939C1026.21 493.222 1023.26 498.906 1023.26 502.994V509.812L1023.93 515.274H1051.22C1053.93 512.543 1057.12 511.168 1060.77 511.168H1068.27C1076.45 511.168 1082.37 514.141 1086.01 520.048V523.448C1082.37 529.374 1076.45 532.328 1068.27 532.328H1061.45C1057.81 532.328 1054.39 530.75 1051.22 527.555H1023.93L1025.99 563.021H1050.53V554.158C1050.53 548.25 1054.17 545.278 1061.46 545.278H1067.59C1073.49 545.278 1078.73 549.831 1083.29 558.934C1084.18 561.199 1084.64 563.485 1084.64 565.751V567.107C1082.37 581.672 1076.22 588.937 1066.23 588.937H1062.14C1054.4 588.936 1050.53 584.403 1050.53 575.3H1025.99C1026.33 585.442 1026.67 595.326 1027 604.95H974.608L974.826 598.488H944.116C943.67 598.488 942.76 601.684 941.385 608.057C938.654 610.787 935.477 612.144 931.836 612.144H926.393C916.844 612.143 910.916 604.879 908.65 590.314C911.362 575.768 917.959 568.485 928.437 568.485H929.793C938.896 568.485 943.448 572.592 943.448 580.766V586.228H975.495C975.941 573.948 976.182 564.844 976.182 558.937V557.562L976.869 550.056H942.759C942.759 554.625 939.34 557.116 932.521 557.562H926.391C914.557 555.741 908.648 550.055 908.648 540.506C911.825 530.511 917.511 525.515 925.704 525.515H933.896C940.25 525.515 943.445 528.468 943.445 534.376V537.794H976.868L978.224 500.267C974.137 490.272 968.229 483.434 960.5 479.793C958.215 473.885 957.082 470.021 957.082 468.2C957.082 465.023 959.126 463.203 963.213 462.738H970.719C970.719 453.653 972.985 449.103 977.556 449.103C982.089 449.103 984.374 446.835 984.374 442.284C984.373 434.106 987.085 430 992.547 430H1009.6Z" fill="#3B3B3B"/>
</g>
<defs>
<clipPath id="clip0_1_5">
<rect width="2000" height="2000" fill="white"/>
</clipPath>
</defs>
</svg>
